# xmcd
#
# Track frame offsets: 
#        150
#        12787
#        26362
#        39662
#        55062
#        68587
#        83712
#        97100
#        110225
#        125462
#        137525
#        149562
#        163512
#        177487
#        191025
#        203775
#        216087
#        228337
#
# Disc length: 3215 seconds
#
# Revision: 0
# Processed by: cddbd v1.4PL0 Copyright (c) Steve Scherf et al.
# Submitted via: ExactAudioCopy v0.90b4
#
DISCID=fe0c8d12
DTITLE=Bill Gaither - Leroy's Buddy (1935 - 1941)
DYEAR=1900
DGENRE=Acoustic
TTITLE0=Naptown Stomp
TTITLE1=Which One I Love The Best
TTITLE2=Too Many Women
TTITLE3=L and N Blues
TTITLE4=Blake Street Blues
TTITLE5=Do Like What You Want
TTITLE6=Thousand Years And A Day
TTITLE7=Mean Old World To Live In
TTITLE8=Right Hand Friend
TTITLE9=New Pains In My Heart
TTITLE10=Bachelor Man Blues
TTITLE11=Love Trifling Blues
TTITLE12=Wandering Rosa Lee
TTITLE13=Moonshine By The Keg
TTITLE14=I Got So Many Women
TTITLE15=I Can Drink Muddy Water
TTITLE16=You Done Ranked Yourself With Me
TTITLE17=Worried Life Blues
EXTD=
EXTT0=
EXTT1=
EXTT2=
EXTT3=
EXTT4=
EXTT5=
EXTT6=
EXTT7=
EXTT8=
EXTT9=
EXTT10=
EXTT11=
EXTT12=
EXTT13=
EXTT14=
EXTT15=
EXTT16=
EXTT17=
PLAYORDER=
